<?xml version="1.0" standalone="no"?>
<!DOCTYPE svg PUBLIC "-//W3C//DTD SVG 20010904//EN"
 "http://www.w3.org/TR/2001/REC-SVG-20010904/DTD/svg10.dtd">
<svg version="1.0" xmlns="http://www.w3.org/2000/svg"
 width="1024.000000pt" height="1024.000000pt" viewBox="0 0 1024.000000 1024.000000"
 preserveAspectRatio="xMidYMid meet">

<g transform="translate(0.000000,1024.000000) scale(0.100000,-0.100000)"
fill="#000000" stroke="none">
<path d="M5240 7820 c-407 -58 -511 -81 -659 -151 -148 -69 -266 -159 -366
-279 -372 -446 -379 -1094 -19 -1637 138 -208 332 -423 659 -730 446 -419 540
-528 608 -701 35 -92 47 -218 27 -303 -41 -176 -179 -313 -370 -365 -90 -25
-340 -25 -463 -1 -286 57 -578 203 -838 417 l-107 88 -272 -285 c-224 -234
-271 -288 -259 -297 8 -6 53 -41 99 -77 325 -254 642 -418 1008 -523 114 -33
271 -68 362 -80 l46 -7 -66 -67 c-36 -37 -166 -172 -289 -300 l-223 -232 154
0 c290 0 612 27 808 66 824 166 1455 741 1733 1581 95 287 146 531 186 888 38
337 41 481 41 1758 l0 1247 -872 -1 c-480 -1 -898 -5 -928 -9z m203 -781 c185
-37 365 -120 552 -254 104 -74 213 -166 214 -179 1 -5 -61 -73 -136 -150 -76
-77 -221 -226 -323 -331 -102 -104 -237 -243 -301 -309 l-116 -118 -165 163
c-302 301 -410 488 -412 714 -1 153 44 260 151 355 131 118 313 155 536 109z"/>
</g>
</svg>
